%TF.GenerationSoftware,KiCad,Pcbnew,8.0.4*%
%TF.CreationDate,2024-11-15T17:35:20-05:00*%
%TF.ProjectId,Calidad_aire,43616c69-6461-4645-9f61-6972652e6b69,rev?*%
%TF.SameCoordinates,Original*%
%TF.FileFunction,Copper,L1,Top*%
%TF.FilePolarity,Positive*%
%FSLAX46Y46*%
G04 Gerber Fmt 4.6, Leading zero omitted, Abs format (unit mm)*
G04 Created by KiCad (PCBNEW 8.0.4) date 2024-11-15 17:35:20*
%MOMM*%
%LPD*%
G01*
G04 APERTURE LIST*
%TA.AperFunction,ComponentPad*%
%ADD10C,1.530000*%
%TD*%
%TA.AperFunction,ComponentPad*%
%ADD11R,3.000000X3.000000*%
%TD*%
%TA.AperFunction,ComponentPad*%
%ADD12C,3.000000*%
%TD*%
%TA.AperFunction,ComponentPad*%
%ADD13C,2.400000*%
%TD*%
%TA.AperFunction,ComponentPad*%
%ADD14O,2.400000X2.400000*%
%TD*%
%TA.AperFunction,Conductor*%
%ADD15C,1.000000*%
%TD*%
G04 APERTURE END LIST*
D10*
%TO.P,A1,1,5V*%
%TO.N,5V*%
X184745000Y-95250000D03*
%TO.P,A1,2,GND*%
%TO.N,GND*%
X177165000Y-95250000D03*
%TO.P,A1,3,DO*%
%TO.N,Net-(A1-DO)*%
X179705000Y-95250000D03*
%TO.P,A1,4,AO*%
%TO.N,unconnected-(A1-AO-Pad4)*%
X182245000Y-95250000D03*
%TD*%
D11*
%TO.P,A2,1,RX*%
%TO.N,TX0_5V*%
X264635000Y-97380000D03*
D12*
%TO.P,A2,2,TX*%
%TO.N,RX0_5V*%
X264635000Y-102460000D03*
%TO.P,A2,3,5V*%
%TO.N,5V*%
X264635000Y-107540000D03*
%TO.P,A2,4,GND*%
%TO.N,GND*%
X264635000Y-112620000D03*
%TD*%
D10*
%TO.P,U1,1,EN*%
%TO.N,unconnected-(U1-EN-Pad1)*%
X177560000Y-102940000D03*
%TO.P,U1,2,GPIO36_ADC-CH0_SENS-VP_RTC-GPIO0*%
%TO.N,unconnected-(U1-GPIO36_ADC-CH0_SENS-VP_RTC-GPIO0-Pad2)*%
X177560000Y-105480000D03*
%TO.P,U1,3,GPIO39_ADC1-CH3_SENS-VN_RTC-GPIO3*%
%TO.N,unconnected-(U1-GPIO39_ADC1-CH3_SENS-VN_RTC-GPIO3-Pad3)*%
X177560000Y-108020000D03*
%TO.P,U1,4,GPIO34_ADC1-CH6_RTC-GPIO4*%
%TO.N,unconnected-(U1-GPIO34_ADC1-CH6_RTC-GPIO4-Pad4)*%
X177560000Y-110560000D03*
%TO.P,U1,5,GPIO35_ADC1-CH7_RTC-GPIO5*%
%TO.N,AO_MQ_135*%
X177560000Y-113100000D03*
%TO.P,U1,6,GPIO32_ADC1-CH4_RTC-GPIO9*%
%TO.N,unconnected-(U1-GPIO32_ADC1-CH4_RTC-GPIO9-Pad6)*%
X177560000Y-115640000D03*
%TO.P,U1,7,GPIO33_ADC1-CH5_RTC-GPIO8*%
%TO.N,unconnected-(U1-GPIO33_ADC1-CH5_RTC-GPIO8-Pad7)*%
X177560000Y-118180000D03*
%TO.P,U1,8,GPIO25_ADC2-CH8_DAC1_RTC-GPIO6*%
%TO.N,unconnected-(U1-GPIO25_ADC2-CH8_DAC1_RTC-GPIO6-Pad8)*%
X177560000Y-120720000D03*
%TO.P,U1,9,GPIO26_ADC2-CH9_DAC2_RTC-GPIO7*%
%TO.N,unconnected-(U1-GPIO26_ADC2-CH9_DAC2_RTC-GPIO7-Pad9)*%
X177560000Y-123260000D03*
%TO.P,U1,10,GPIO27_ADC2-CH7_RTC-GPIO17*%
%TO.N,unconnected-(U1-GPIO27_ADC2-CH7_RTC-GPIO17-Pad10)*%
X177560000Y-125800000D03*
%TO.P,U1,11,GPIO14_ADC2-CH6_HSPI-CLK_RTC-GPIO16*%
%TO.N,DHT_22*%
X177560000Y-128340000D03*
%TO.P,U1,12,GPIO12_ADC2-CH5_HSPI-MISO_RTC-GPIO15*%
%TO.N,RX0_3V*%
X177560000Y-130880000D03*
%TO.P,U1,13,GPIO13_ADC2-CH4_HSPI-MOSI_RTC-GPIO14*%
%TO.N,TX0_3V*%
X177560000Y-133420000D03*
%TO.P,U1,14,GND*%
%TO.N,GND*%
X177560000Y-135960000D03*
%TO.P,U1,15,VIN*%
%TO.N,5V*%
X177560000Y-138500000D03*
%TO.P,U1,16,3V3*%
%TO.N,3.3V*%
X202960000Y-138500000D03*
%TO.P,U1,17,GND*%
%TO.N,unconnected-(U1-GND-Pad17)*%
X202960000Y-135960000D03*
%TO.P,U1,18,GPIO15_ADC2-CH3_HSPI-CS0_RTC-GPIO13*%
%TO.N,unconnected-(U1-GPIO15_ADC2-CH3_HSPI-CS0_RTC-GPIO13-Pad18)*%
X202960000Y-133420000D03*
%TO.P,U1,19,GPIO2_ADC2-CH2_RTC-GPIO12*%
%TO.N,unconnected-(U1-GPIO2_ADC2-CH2_RTC-GPIO12-Pad19)*%
X202960000Y-130880000D03*
%TO.P,U1,20,GPIO4_ADC2-CH0_RTC-GPIO10*%
%TO.N,3.3V*%
X202960000Y-128340000D03*
%TO.P,U1,21,GPIO16_UART2-RX*%
%TO.N,RX2_3V*%
X202960000Y-125800000D03*
%TO.P,U1,22,GPIO17_UART2-TX*%
%TO.N,TX2_3V*%
X202960000Y-123260000D03*
%TO.P,U1,23,GPIO5_VSPI-CS0*%
%TO.N,SD_SS*%
X202960000Y-120720000D03*
%TO.P,U1,24,GPIO18_VSPI-CLK*%
%TO.N,SD_CLK*%
X202960000Y-118180000D03*
%TO.P,U1,25,GPIO19_VSPI-MISO*%
%TO.N,SD_MISO*%
X202960000Y-115640000D03*
%TO.P,U1,26,GPIO21_I2C-SDA*%
%TO.N,SDA*%
X202960000Y-113100000D03*
%TO.P,U1,27,GPIO3__UART0-RX*%
%TO.N,unconnected-(U1-GPIO3__UART0-RX-Pad27)*%
X202960000Y-110560000D03*
%TO.P,U1,28,GPIO1_UART0-TX*%
%TO.N,unconnected-(U1-GPIO1_UART0-TX-Pad28)*%
X202960000Y-108020000D03*
%TO.P,U1,29,GPIO22_I2C-SCL*%
%TO.N,SCK*%
X202960000Y-105480000D03*
%TO.P,U1,30,GPIO23_VSPI-MOSI*%
%TO.N,SD_MOSI*%
X202960000Y-102940000D03*
%TD*%
%TO.P,A4,1,SDA*%
%TO.N,SDA*%
X232885000Y-105370000D03*
%TO.P,A4,2,SCK*%
%TO.N,SCK*%
X232885000Y-102870000D03*
%TO.P,A4,3,VCC*%
%TO.N,3.3V*%
X232885000Y-97790000D03*
%TO.P,A4,4,GND*%
%TO.N,GND*%
X232885000Y-100330000D03*
%TD*%
D13*
%TO.P,R1,1*%
%TO.N,Net-(A1-DO)*%
X199865000Y-80870000D03*
D14*
%TO.P,R1,2*%
%TO.N,AO_MQ_135*%
X199865000Y-96110000D03*
%TD*%
D10*
%TO.P,J1,1,5V*%
%TO.N,5V*%
X244315000Y-102500000D03*
%TO.P,J1,2,CS*%
%TO.N,SD_SS*%
X244315000Y-112620000D03*
%TO.P,J1,3,MOSI*%
%TO.N,SD_MOSI*%
X244315000Y-107540000D03*
%TO.P,J1,4,CLK*%
%TO.N,SD_CLK*%
X244315000Y-110080000D03*
%TO.P,J1,5,MISO*%
%TO.N,SD_MISO*%
X244315000Y-105040000D03*
%TO.P,J1,6,GND*%
%TO.N,GND*%
X244315000Y-99960000D03*
%TD*%
D13*
%TO.P,R2,1*%
%TO.N,AO_MQ_135*%
X192245000Y-96110000D03*
D14*
%TO.P,R2,2*%
%TO.N,GND*%
X192245000Y-80870000D03*
%TD*%
D12*
%TO.P,U3,1,VOUT+*%
%TO.N,5V*%
X235995000Y-60110000D03*
%TO.P,U3,2,VOUT-*%
%TO.N,GND*%
X229095000Y-60110000D03*
%TO.P,U3,3,IN+*%
%TO.N,unconnected-(U3-IN+-Pad3)*%
X222595000Y-60110000D03*
%TO.P,U3,4,IN-*%
%TO.N,unconnected-(U3-IN--Pad4)*%
X207295000Y-60110000D03*
%TO.P,U3,5,BAT+*%
%TO.N,Net-(BT1-+)*%
X219795000Y-80210000D03*
%TO.P,U3,6,BAT-*%
%TO.N,GND*%
X210295000Y-80210000D03*
%TD*%
D10*
%TO.P,A3,*%
%TO.N,*%
X267470000Y-132850000D03*
X267470000Y-130310000D03*
X235990000Y-135360000D03*
X235990000Y-132820000D03*
X235990000Y-125240000D03*
%TO.P,A3,1,RX*%
%TO.N,TX2_5V*%
X235990000Y-127780000D03*
%TO.P,A3,2,TX*%
%TO.N,RX2_5V*%
X235990000Y-130280000D03*
%TO.P,A3,3,5V*%
%TO.N,5V*%
X267470000Y-125230000D03*
%TO.P,A3,4,GND*%
%TO.N,GND*%
X267470000Y-127770000D03*
%TD*%
%TO.P,U2,*%
%TO.N,*%
X209265000Y-134210000D03*
%TO.P,U2,1,VCCA*%
%TO.N,5V*%
X219425000Y-131710000D03*
%TO.P,U2,2,A1*%
%TO.N,TX0_5V*%
X219425000Y-126630000D03*
%TO.P,U2,3,A2*%
%TO.N,RX0_5V*%
X219425000Y-129170000D03*
%TO.P,U2,4,A3*%
%TO.N,TX2_5V*%
X219425000Y-136750000D03*
%TO.P,U2,5,A4*%
%TO.N,RX2_5V*%
X219425000Y-139290000D03*
%TO.P,U2,7,GND*%
%TO.N,GND*%
X219425000Y-134210000D03*
%TO.P,U2,10,B4*%
%TO.N,RX2_3V*%
X209265000Y-139290000D03*
%TO.P,U2,11,B3*%
%TO.N,TX2_3V*%
X209265000Y-136750000D03*
%TO.P,U2,12,B2*%
%TO.N,RX0_3V*%
X209265000Y-129130000D03*
%TO.P,U2,13,B1*%
%TO.N,TX0_3V*%
X209265000Y-126590000D03*
%TO.P,U2,14,VCCB*%
%TO.N,3.3V*%
X209265000Y-131670000D03*
%TD*%
%TO.P,A5,1,VDD*%
%TO.N,3.3V*%
X253075000Y-85900000D03*
%TO.P,A5,2,DATA*%
%TO.N,DHT_22*%
X250535000Y-85900000D03*
%TO.P,A5,3,GND*%
%TO.N,GND*%
X247995000Y-85900000D03*
%TD*%
D11*
%TO.P,BT1,1,+*%
%TO.N,Net-(BT1-+)*%
X255905000Y-68580000D03*
D12*
%TO.P,BT1,2,-*%
%TO.N,GND*%
X250825000Y-68580000D03*
%TD*%
D15*
%TO.N,DHT_22*%
X182720000Y-124685000D02*
X182720000Y-117762000D01*
X250535000Y-85900000D02*
X250535000Y-88360000D01*
X250535000Y-88360000D02*
X245325000Y-93570000D01*
X206883000Y-93599000D02*
X183007000Y-117475000D01*
X206912000Y-93570000D02*
X245325000Y-93570000D01*
X179065000Y-128340000D02*
X182720000Y-124685000D01*
X182720000Y-117762000D02*
X183007000Y-117475000D01*
X206883000Y-93599000D02*
X206912000Y-93570000D01*
X177560000Y-128340000D02*
X179065000Y-128340000D01*
%TO.N,TX2_5V*%
X219425000Y-136750000D02*
X221455000Y-136750000D01*
X230425000Y-127780000D02*
X235990000Y-127780000D01*
X221455000Y-136750000D02*
X230425000Y-127780000D01*
%TO.N,SDA*%
X224790000Y-111252000D02*
X230672000Y-105370000D01*
X230672000Y-105370000D02*
X232885000Y-105370000D01*
X205994000Y-111252000D02*
X224790000Y-111252000D01*
X204146000Y-113100000D02*
X205994000Y-111252000D01*
X202960000Y-113100000D02*
X204146000Y-113100000D01*
%TO.N,SD_SS*%
X204465000Y-120655000D02*
X204465000Y-120720000D01*
X204465000Y-120720000D02*
X202960000Y-120720000D01*
X244315000Y-112620000D02*
X239235000Y-112620000D01*
X207993500Y-117126500D02*
X204465000Y-120655000D01*
X239235000Y-112620000D02*
X234728500Y-117126500D01*
X207993500Y-117126500D02*
X234728500Y-117126500D01*
%TO.N,3.3V*%
X210496000Y-141548000D02*
X211295000Y-140749000D01*
X205740000Y-97790000D02*
X200660000Y-102870000D01*
X232885000Y-97790000D02*
X205740000Y-97790000D01*
X202960000Y-140476000D02*
X204032000Y-141548000D01*
X253075000Y-85900000D02*
X253075000Y-88620000D01*
X253075000Y-88620000D02*
X243905000Y-97790000D01*
X210025000Y-131670000D02*
X209265000Y-131670000D01*
X201365000Y-128340000D02*
X202960000Y-128340000D01*
X211295000Y-140749000D02*
X211295000Y-132940000D01*
X211295000Y-132940000D02*
X210025000Y-131670000D01*
X204032000Y-141548000D02*
X210496000Y-141548000D01*
X200660000Y-102870000D02*
X200660000Y-127635000D01*
X243905000Y-97790000D02*
X232885000Y-97790000D01*
X202960000Y-138500000D02*
X202960000Y-140476000D01*
X200660000Y-127635000D02*
X201365000Y-128340000D01*
%TO.N,TX0_5V*%
X256032000Y-115824000D02*
X256032000Y-103443000D01*
X256032000Y-103443000D02*
X262095000Y-97380000D01*
X262095000Y-97380000D02*
X264635000Y-97380000D01*
X221415000Y-126630000D02*
X228919000Y-119126000D01*
X219425000Y-126630000D02*
X221415000Y-126630000D01*
X252730000Y-119126000D02*
X256032000Y-115824000D01*
X228919000Y-119126000D02*
X252730000Y-119126000D01*
%TO.N,Net-(BT1-+)*%
X232410000Y-69850000D02*
X222050000Y-80210000D01*
X222050000Y-80210000D02*
X219795000Y-80210000D01*
X255905000Y-63373000D02*
X248666000Y-56134000D01*
X255905000Y-68580000D02*
X255905000Y-63373000D01*
X232410000Y-59055000D02*
X232410000Y-69850000D01*
X248666000Y-56134000D02*
X235331000Y-56134000D01*
X235331000Y-56134000D02*
X232410000Y-59055000D01*
%TO.N,RX2_5V*%
X219425000Y-139290000D02*
X222725000Y-139290000D01*
X231735000Y-130280000D02*
X235990000Y-130280000D01*
X222725000Y-139290000D02*
X231735000Y-130280000D01*
%TO.N,SD_MISO*%
X202960000Y-115640000D02*
X204146000Y-115640000D01*
X204146000Y-115640000D02*
X206502000Y-113284000D01*
X239892000Y-105040000D02*
X244315000Y-105040000D01*
X231648000Y-113284000D02*
X239892000Y-105040000D01*
X206502000Y-113284000D02*
X231648000Y-113284000D01*
%TO.N,SD_CLK*%
X238408000Y-110080000D02*
X238506000Y-110080000D01*
X233172000Y-115316000D02*
X238408000Y-110080000D01*
X204465000Y-118180000D02*
X202960000Y-118180000D01*
X204465000Y-118180000D02*
X204465000Y-118115000D01*
X244315000Y-110080000D02*
X238506000Y-110080000D01*
X204465000Y-118115000D02*
X207264000Y-115316000D01*
X207264000Y-115316000D02*
X233172000Y-115316000D01*
%TO.N,SCK*%
X232885000Y-102870000D02*
X230755000Y-102870000D01*
X228145000Y-105480000D02*
X202960000Y-105480000D01*
X230755000Y-102870000D02*
X228145000Y-105480000D01*
%TO.N,RX0_5V*%
X258572000Y-116143000D02*
X253811000Y-120904000D01*
X229870000Y-120904000D02*
X221604000Y-129170000D01*
X262284000Y-102460000D02*
X258572000Y-106172000D01*
X221604000Y-129170000D02*
X219425000Y-129170000D01*
X253811000Y-120904000D02*
X229870000Y-120904000D01*
X264635000Y-102460000D02*
X262284000Y-102460000D01*
X258572000Y-106172000D02*
X258572000Y-116143000D01*
%TO.N,5V*%
X174498000Y-101952000D02*
X176530000Y-99920000D01*
X199644000Y-149098000D02*
X230632000Y-149098000D01*
X240505000Y-124050000D02*
X240505000Y-125222000D01*
X260858000Y-125230000D02*
X259555000Y-125230000D01*
X221415000Y-131710000D02*
X230345000Y-122780000D01*
X250625000Y-102500000D02*
X244315000Y-102500000D01*
X263365000Y-107540000D02*
X260825000Y-110080000D01*
X189046000Y-138500000D02*
X199644000Y-149098000D01*
X268445000Y-106270000D02*
X268445000Y-96110000D01*
X267175000Y-107540000D02*
X268445000Y-106270000D01*
X235995000Y-68990000D02*
X247650000Y-80645000D01*
X240440000Y-139290000D02*
X240505000Y-139290000D01*
X239235000Y-122780000D02*
X240505000Y-124050000D01*
X264635000Y-107540000D02*
X263365000Y-107540000D01*
X230632000Y-149098000D02*
X240440000Y-139290000D01*
X174498000Y-137414000D02*
X174498000Y-101952000D01*
X219425000Y-131710000D02*
X221415000Y-131710000D01*
X260825000Y-110080000D02*
X260825000Y-125197000D01*
X268445000Y-96110000D02*
X265905000Y-93570000D01*
X176530000Y-99920000D02*
X182085000Y-99920000D01*
X260350000Y-86995000D02*
X260350000Y-93570000D01*
X260350000Y-93570000D02*
X259555000Y-93570000D01*
X177560000Y-138500000D02*
X175584000Y-138500000D01*
X230345000Y-122780000D02*
X239235000Y-122780000D01*
X254000000Y-80645000D02*
X260350000Y-86995000D01*
X235995000Y-60110000D02*
X235995000Y-68990000D01*
X262255000Y-93570000D02*
X260350000Y-93570000D01*
X264635000Y-107540000D02*
X267175000Y-107540000D01*
X240505000Y-139290000D02*
X240505000Y-125222000D01*
X175584000Y-138500000D02*
X174498000Y-137414000D01*
X240513000Y-125230000D02*
X240505000Y-125222000D01*
X177560000Y-138500000D02*
X189046000Y-138500000D01*
X260825000Y-125197000D02*
X260858000Y-125230000D01*
X267470000Y-125230000D02*
X260858000Y-125230000D01*
X247650000Y-80645000D02*
X254000000Y-80645000D01*
X259555000Y-93570000D02*
X250625000Y-102500000D01*
X265905000Y-93570000D02*
X262255000Y-93570000D01*
X184745000Y-97260000D02*
X184745000Y-95250000D01*
X259555000Y-125230000D02*
X240513000Y-125230000D01*
X182085000Y-99920000D02*
X184745000Y-97260000D01*
%TO.N,AO_MQ_135*%
X192245000Y-96110000D02*
X199865000Y-96110000D01*
X192245000Y-105000000D02*
X184145000Y-113100000D01*
X192245000Y-96110000D02*
X192245000Y-105000000D01*
X184145000Y-113100000D02*
X177560000Y-113100000D01*
%TO.N,Net-(A1-DO)*%
X199865000Y-83410000D02*
X192245000Y-91030000D01*
X179705000Y-93410000D02*
X179705000Y-95250000D01*
X192245000Y-91030000D02*
X182085000Y-91030000D01*
X199865000Y-80870000D02*
X199865000Y-83410000D01*
X182085000Y-91030000D02*
X179705000Y-93410000D01*
%TO.N,RX0_3V*%
X191121000Y-130880000D02*
X204005000Y-143764000D01*
X210820000Y-143764000D02*
X212852000Y-141732000D01*
X204005000Y-143764000D02*
X210820000Y-143764000D01*
X191121000Y-130880000D02*
X177560000Y-130880000D01*
X212852000Y-141732000D02*
X212852000Y-130400000D01*
X212565000Y-130400000D02*
X211295000Y-129130000D01*
X211295000Y-129130000D02*
X209265000Y-129130000D01*
%TO.N,TX0_3V*%
X213458000Y-126590000D02*
X215392000Y-128524000D01*
X215392000Y-128524000D02*
X215392000Y-142748000D01*
X209265000Y-126590000D02*
X213458000Y-126590000D01*
X215392000Y-142748000D02*
X212344000Y-145796000D01*
X190316000Y-133420000D02*
X177560000Y-133420000D01*
X212344000Y-145796000D02*
X202692000Y-145796000D01*
X202692000Y-145796000D02*
X190316000Y-133420000D01*
%TO.N,TX2_3V*%
X207010000Y-135636000D02*
X207010000Y-126115000D01*
X208124000Y-136750000D02*
X207010000Y-135636000D01*
X204155000Y-123260000D02*
X202960000Y-123260000D01*
X207010000Y-126115000D02*
X204155000Y-123260000D01*
X209265000Y-136750000D02*
X208124000Y-136750000D01*
%TO.N,RX2_3V*%
X204155000Y-125800000D02*
X202960000Y-125800000D01*
X205486000Y-136906000D02*
X205486000Y-127131000D01*
X207870000Y-139290000D02*
X205486000Y-136906000D01*
X209265000Y-139290000D02*
X207870000Y-139290000D01*
X205486000Y-127131000D02*
X204155000Y-125800000D01*
%TD*%
M02*
