M48
; DRILL file {KiCad 8.0.4} date 2024-11-12T14:27:08-0500
; FORMAT={-:-/ absolute / inch / decimal}
; #@! TF.CreationDate,2024-11-12T14:27:08-05:00
; #@! TF.GenerationSoftware,Kicad,Pcbnew,8.0.4
; #@! TF.FileFunction,Plated,1,2,PTH
FMAT,2
INCH
; #@! TA.AperFunction,Plated,PTH,ComponentDrill
T1C0.0394
; #@! TA.AperFunction,Plated,PTH,ComponentDrill
T2C0.0402
; #@! TA.AperFunction,Plated,PTH,ComponentDrill
T3C0.0472
; #@! TA.AperFunction,Plated,PTH,ComponentDrill
T4C0.0598
%
G90
G05
T1
X8.1612Y-2.3665
X8.2793Y-3.1579
X8.6533Y-3.1579
X8.7636Y-2.3665
X9.0195Y-2.3665
X9.2911Y-2.3665
T2
X6.975Y-3.75
X6.9906Y-4.0528
X6.9906Y-4.1528
X6.9906Y-4.2528
X6.9906Y-4.3528
X6.9906Y-4.4528
X6.9906Y-4.5528
X6.9906Y-4.6528
X6.9906Y-4.7528
X6.9906Y-4.8528
X6.9906Y-4.9528
X6.9906Y-5.0528
X6.9906Y-5.1528
X6.9906Y-5.2528
X6.9906Y-5.3528
X6.9906Y-5.4528
X7.075Y-3.75
X7.175Y-3.75
X7.2734Y-3.75
X7.9906Y-4.0528
X7.9906Y-4.1528
X7.9906Y-4.2528
X7.9906Y-4.3528
X7.9906Y-4.4528
X7.9906Y-4.5528
X7.9906Y-4.6528
X7.9906Y-4.7528
X7.9906Y-4.8528
X7.9906Y-4.9528
X7.9906Y-5.0528
X7.9906Y-5.1528
X7.9906Y-5.2528
X7.9906Y-5.3528
X7.9906Y-5.4528
X8.2388Y-4.9839
X8.2388Y-5.0839
X8.2388Y-5.1839
X8.2388Y-5.2839
X8.2388Y-5.3839
X8.2388Y-5.4839
X8.6388Y-4.9854
X8.6388Y-5.0854
X8.6388Y-5.1854
X8.6388Y-5.2839
X8.6388Y-5.3839
X8.6388Y-5.4839
X9.1687Y-3.85
X9.1687Y-3.95
X9.1687Y-4.05
X9.1687Y-4.1484
X9.2909Y-4.9307
X9.2909Y-5.0307
X9.2909Y-5.1291
X9.2909Y-5.2291
X9.2909Y-5.3291
X9.6187Y-3.9354
X9.6187Y-4.0354
X9.6187Y-4.1354
X9.6187Y-4.2339
X9.6187Y-4.3339
X9.6187Y-4.4339
X9.7636Y-3.3819
X9.8636Y-3.3819
X9.9636Y-3.3819
X10.5303Y-4.9303
X10.5303Y-5.0303
X10.5303Y-5.1303
X10.5303Y-5.2303
T3
X7.5687Y-3.1839
X7.5687Y-3.7839
X7.8687Y-3.1839
X7.8687Y-3.7839
T4
X9.875Y-2.7
X10.075Y-2.7
X10.4187Y-3.8339
X10.4187Y-4.0339
X10.4187Y-4.2339
X10.4187Y-4.4339
M30
