%TF.GenerationSoftware,KiCad,Pcbnew,8.0.4*%
%TF.CreationDate,2024-11-11T21:26:13-05:00*%
%TF.ProjectId,Calidad_aire,43616c69-6461-4645-9f61-6972652e6b69,rev?*%
%TF.SameCoordinates,Original*%
%TF.FileFunction,Legend,Top*%
%TF.FilePolarity,Positive*%
%FSLAX46Y46*%
G04 Gerber Fmt 4.6, Leading zero omitted, Abs format (unit mm)*
G04 Created by KiCad (PCBNEW 8.0.4) date 2024-11-11 21:26:13*
%MOMM*%
%LPD*%
G01*
G04 APERTURE LIST*
%ADD10C,0.100000*%
%ADD11C,0.150000*%
%ADD12C,0.120000*%
%ADD13C,0.127000*%
%ADD14C,0.200000*%
%TA.AperFunction,ComponentPad*%
%ADD15C,3.000000*%
%TD*%
%TA.AperFunction,ComponentPad*%
%ADD16R,3.000000X3.000000*%
%TD*%
%TA.AperFunction,ComponentPad*%
%ADD17C,1.530000*%
%TD*%
%TA.AperFunction,ComponentPad*%
%ADD18C,2.400000*%
%TD*%
%TA.AperFunction,ComponentPad*%
%ADD19O,2.400000X2.400000*%
%TD*%
%TA.AperFunction,Conductor*%
%ADD20C,0.500000*%
%TD*%
%TA.AperFunction,Conductor*%
%ADD21C,0.200000*%
%TD*%
%TA.AperFunction,Conductor*%
%ADD22C,1.000000*%
%TD*%
G04 APERTURE END LIST*
D10*
X163277580Y-111993095D02*
X162468057Y-111993095D01*
X162468057Y-111993095D02*
X162372819Y-112040714D01*
X162372819Y-112040714D02*
X162325200Y-112088333D01*
X162325200Y-112088333D02*
X162277580Y-112183571D01*
X162277580Y-112183571D02*
X162277580Y-112374047D01*
X162277580Y-112374047D02*
X162325200Y-112469285D01*
X162325200Y-112469285D02*
X162372819Y-112516904D01*
X162372819Y-112516904D02*
X162468057Y-112564523D01*
X162468057Y-112564523D02*
X163277580Y-112564523D01*
X163277580Y-112945476D02*
X163277580Y-113564523D01*
X163277580Y-113564523D02*
X162896628Y-113231190D01*
X162896628Y-113231190D02*
X162896628Y-113374047D01*
X162896628Y-113374047D02*
X162849009Y-113469285D01*
X162849009Y-113469285D02*
X162801390Y-113516904D01*
X162801390Y-113516904D02*
X162706152Y-113564523D01*
X162706152Y-113564523D02*
X162468057Y-113564523D01*
X162468057Y-113564523D02*
X162372819Y-113516904D01*
X162372819Y-113516904D02*
X162325200Y-113469285D01*
X162325200Y-113469285D02*
X162277580Y-113374047D01*
X162277580Y-113374047D02*
X162277580Y-113088333D01*
X162277580Y-113088333D02*
X162325200Y-112993095D01*
X162325200Y-112993095D02*
X162372819Y-112945476D01*
D11*
X161856009Y-91590714D02*
X161903628Y-91447857D01*
X161903628Y-91447857D02*
X161951247Y-91400238D01*
X161951247Y-91400238D02*
X162046485Y-91352619D01*
X162046485Y-91352619D02*
X162189342Y-91352619D01*
X162189342Y-91352619D02*
X162284580Y-91400238D01*
X162284580Y-91400238D02*
X162332200Y-91447857D01*
X162332200Y-91447857D02*
X162379819Y-91543095D01*
X162379819Y-91543095D02*
X162379819Y-91924047D01*
X162379819Y-91924047D02*
X161379819Y-91924047D01*
X161379819Y-91924047D02*
X161379819Y-91590714D01*
X161379819Y-91590714D02*
X161427438Y-91495476D01*
X161427438Y-91495476D02*
X161475057Y-91447857D01*
X161475057Y-91447857D02*
X161570295Y-91400238D01*
X161570295Y-91400238D02*
X161665533Y-91400238D01*
X161665533Y-91400238D02*
X161760771Y-91447857D01*
X161760771Y-91447857D02*
X161808390Y-91495476D01*
X161808390Y-91495476D02*
X161856009Y-91590714D01*
X161856009Y-91590714D02*
X161856009Y-91924047D01*
X161379819Y-91066904D02*
X161379819Y-90495476D01*
X162379819Y-90781190D02*
X161379819Y-90781190D01*
X162379819Y-89638333D02*
X162379819Y-90209761D01*
X162379819Y-89924047D02*
X161379819Y-89924047D01*
X161379819Y-89924047D02*
X161522676Y-90019285D01*
X161522676Y-90019285D02*
X161617914Y-90114523D01*
X161617914Y-90114523D02*
X161665533Y-90209761D01*
D10*
X174276704Y-95964285D02*
X174276704Y-95488095D01*
X174562419Y-96059523D02*
X173562419Y-95726190D01*
X173562419Y-95726190D02*
X174562419Y-95392857D01*
X174562419Y-94535714D02*
X174562419Y-95107142D01*
X174562419Y-94821428D02*
X173562419Y-94821428D01*
X173562419Y-94821428D02*
X173705276Y-94916666D01*
X173705276Y-94916666D02*
X173800514Y-95011904D01*
X173800514Y-95011904D02*
X173848133Y-95107142D01*
D11*
X269604104Y-105694285D02*
X269604104Y-105218095D01*
X269889819Y-105789523D02*
X268889819Y-105456190D01*
X268889819Y-105456190D02*
X269889819Y-105122857D01*
X268985057Y-104837142D02*
X268937438Y-104789523D01*
X268937438Y-104789523D02*
X268889819Y-104694285D01*
X268889819Y-104694285D02*
X268889819Y-104456190D01*
X268889819Y-104456190D02*
X268937438Y-104360952D01*
X268937438Y-104360952D02*
X268985057Y-104313333D01*
X268985057Y-104313333D02*
X269080295Y-104265714D01*
X269080295Y-104265714D02*
X269175533Y-104265714D01*
X269175533Y-104265714D02*
X269318390Y-104313333D01*
X269318390Y-104313333D02*
X269889819Y-104884761D01*
X269889819Y-104884761D02*
X269889819Y-104265714D01*
X220840714Y-95459104D02*
X221316904Y-95459104D01*
X220745476Y-95744819D02*
X221078809Y-94744819D01*
X221078809Y-94744819D02*
X221412142Y-95744819D01*
X222174047Y-95078152D02*
X222174047Y-95744819D01*
X221935952Y-94697200D02*
X221697857Y-95411485D01*
X221697857Y-95411485D02*
X222316904Y-95411485D01*
X203689819Y-88656666D02*
X203213628Y-88989999D01*
X203689819Y-89228094D02*
X202689819Y-89228094D01*
X202689819Y-89228094D02*
X202689819Y-88847142D01*
X202689819Y-88847142D02*
X202737438Y-88751904D01*
X202737438Y-88751904D02*
X202785057Y-88704285D01*
X202785057Y-88704285D02*
X202880295Y-88656666D01*
X202880295Y-88656666D02*
X203023152Y-88656666D01*
X203023152Y-88656666D02*
X203118390Y-88704285D01*
X203118390Y-88704285D02*
X203166009Y-88751904D01*
X203166009Y-88751904D02*
X203213628Y-88847142D01*
X203213628Y-88847142D02*
X203213628Y-89228094D01*
X203689819Y-87704285D02*
X203689819Y-88275713D01*
X203689819Y-87989999D02*
X202689819Y-87989999D01*
X202689819Y-87989999D02*
X202832676Y-88085237D01*
X202832676Y-88085237D02*
X202927914Y-88180475D01*
X202927914Y-88180475D02*
X202975533Y-88275713D01*
D10*
X243378333Y-116972580D02*
X243378333Y-116258295D01*
X243378333Y-116258295D02*
X243425952Y-116115438D01*
X243425952Y-116115438D02*
X243521190Y-116020200D01*
X243521190Y-116020200D02*
X243664047Y-115972580D01*
X243664047Y-115972580D02*
X243759285Y-115972580D01*
X242378333Y-115972580D02*
X242949761Y-115972580D01*
X242664047Y-115972580D02*
X242664047Y-116972580D01*
X242664047Y-116972580D02*
X242759285Y-116829723D01*
X242759285Y-116829723D02*
X242854523Y-116734485D01*
X242854523Y-116734485D02*
X242949761Y-116686866D01*
D11*
X189329819Y-88656666D02*
X188853628Y-88989999D01*
X189329819Y-89228094D02*
X188329819Y-89228094D01*
X188329819Y-89228094D02*
X188329819Y-88847142D01*
X188329819Y-88847142D02*
X188377438Y-88751904D01*
X188377438Y-88751904D02*
X188425057Y-88704285D01*
X188425057Y-88704285D02*
X188520295Y-88656666D01*
X188520295Y-88656666D02*
X188663152Y-88656666D01*
X188663152Y-88656666D02*
X188758390Y-88704285D01*
X188758390Y-88704285D02*
X188806009Y-88751904D01*
X188806009Y-88751904D02*
X188853628Y-88847142D01*
X188853628Y-88847142D02*
X188853628Y-89228094D01*
X188425057Y-88275713D02*
X188377438Y-88228094D01*
X188377438Y-88228094D02*
X188329819Y-88132856D01*
X188329819Y-88132856D02*
X188329819Y-87894761D01*
X188329819Y-87894761D02*
X188377438Y-87799523D01*
X188377438Y-87799523D02*
X188425057Y-87751904D01*
X188425057Y-87751904D02*
X188520295Y-87704285D01*
X188520295Y-87704285D02*
X188615533Y-87704285D01*
X188615533Y-87704285D02*
X188758390Y-87751904D01*
X188758390Y-87751904D02*
X189329819Y-88323332D01*
X189329819Y-88323332D02*
X189329819Y-87704285D01*
X260444285Y-125670895D02*
X259968095Y-125670895D01*
X260539523Y-125385180D02*
X260206190Y-126385180D01*
X260206190Y-126385180D02*
X259872857Y-125385180D01*
X259634761Y-126385180D02*
X259015714Y-126385180D01*
X259015714Y-126385180D02*
X259349047Y-126004228D01*
X259349047Y-126004228D02*
X259206190Y-126004228D01*
X259206190Y-126004228D02*
X259110952Y-125956609D01*
X259110952Y-125956609D02*
X259063333Y-125908990D01*
X259063333Y-125908990D02*
X259015714Y-125813752D01*
X259015714Y-125813752D02*
X259015714Y-125575657D01*
X259015714Y-125575657D02*
X259063333Y-125480419D01*
X259063333Y-125480419D02*
X259110952Y-125432800D01*
X259110952Y-125432800D02*
X259206190Y-125385180D01*
X259206190Y-125385180D02*
X259491904Y-125385180D01*
X259491904Y-125385180D02*
X259587142Y-125432800D01*
X259587142Y-125432800D02*
X259634761Y-125480419D01*
D10*
X244693295Y-85325714D02*
X244693295Y-85801904D01*
X244407580Y-85230476D02*
X245407580Y-85563809D01*
X245407580Y-85563809D02*
X244407580Y-85897142D01*
X245407580Y-86706666D02*
X245407580Y-86230476D01*
X245407580Y-86230476D02*
X244931390Y-86182857D01*
X244931390Y-86182857D02*
X244979009Y-86230476D01*
X244979009Y-86230476D02*
X245026628Y-86325714D01*
X245026628Y-86325714D02*
X245026628Y-86563809D01*
X245026628Y-86563809D02*
X244979009Y-86659047D01*
X244979009Y-86659047D02*
X244931390Y-86706666D01*
X244931390Y-86706666D02*
X244836152Y-86754285D01*
X244836152Y-86754285D02*
X244598057Y-86754285D01*
X244598057Y-86754285D02*
X244502819Y-86706666D01*
X244502819Y-86706666D02*
X244455200Y-86659047D01*
X244455200Y-86659047D02*
X244407580Y-86563809D01*
X244407580Y-86563809D02*
X244407580Y-86325714D01*
X244407580Y-86325714D02*
X244455200Y-86230476D01*
X244455200Y-86230476D02*
X244502819Y-86182857D01*
X190078095Y-124787419D02*
X190078095Y-125596942D01*
X190078095Y-125596942D02*
X190125714Y-125692180D01*
X190125714Y-125692180D02*
X190173333Y-125739800D01*
X190173333Y-125739800D02*
X190268571Y-125787419D01*
X190268571Y-125787419D02*
X190459047Y-125787419D01*
X190459047Y-125787419D02*
X190554285Y-125739800D01*
X190554285Y-125739800D02*
X190601904Y-125692180D01*
X190601904Y-125692180D02*
X190649523Y-125596942D01*
X190649523Y-125596942D02*
X190649523Y-124787419D01*
X191649523Y-125787419D02*
X191078095Y-125787419D01*
X191363809Y-125787419D02*
X191363809Y-124787419D01*
X191363809Y-124787419D02*
X191268571Y-124930276D01*
X191268571Y-124930276D02*
X191173333Y-125025514D01*
X191173333Y-125025514D02*
X191078095Y-125073133D01*
%TO.C,U3*%
X170275000Y-106395000D02*
X146875000Y-106395000D01*
X146875000Y-138695000D01*
X170275000Y-138695000D01*
X170275000Y-106395000D01*
D12*
%TO.C,BT1*%
X160655000Y-85725000D02*
X153035000Y-85725000D01*
X153035000Y-85725000D02*
X153035000Y-95885000D01*
X160655000Y-95885000D02*
X160655000Y-85725000D01*
X154305000Y-95885000D02*
X154305000Y-85725000D01*
X153035000Y-95885000D02*
X160655000Y-95885000D01*
%TO.C,A1*%
D10*
X175105000Y-96930000D02*
X186485000Y-96930000D01*
X186485000Y-77530000D01*
X175105000Y-77530000D01*
X175105000Y-96930000D01*
D12*
%TO.C,A2*%
X260825000Y-94840000D02*
X260825000Y-115160000D01*
X260825000Y-115160000D02*
X268445000Y-115160000D01*
X262095000Y-115160000D02*
X262095000Y-94840000D01*
X268445000Y-94840000D02*
X260825000Y-94840000D01*
X268445000Y-94840000D02*
X268445000Y-115160000D01*
%TO.C,A4*%
D10*
X208485000Y-86870000D02*
X235165000Y-86870000D01*
X235165000Y-115570000D01*
X208485000Y-115570000D01*
X208485000Y-86870000D01*
D12*
%TO.C,R1*%
X197495000Y-82420000D02*
X197495000Y-94560000D01*
X197495000Y-94560000D02*
X202235000Y-94560000D01*
X199865000Y-82310000D02*
X199865000Y-82420000D01*
X199865000Y-94670000D02*
X199865000Y-94560000D01*
X202235000Y-82420000D02*
X197495000Y-82420000D01*
X202235000Y-94560000D02*
X202235000Y-82420000D01*
%TO.C,J1*%
D10*
X245975000Y-114660000D02*
X242605000Y-114660000D01*
X242605000Y-97870000D01*
X245975000Y-97870000D01*
X245975000Y-114660000D01*
D12*
%TO.C,R2*%
X189875000Y-82420000D02*
X189875000Y-94560000D01*
X189875000Y-94560000D02*
X194615000Y-94560000D01*
X192245000Y-82310000D02*
X192245000Y-82420000D01*
X192245000Y-94670000D02*
X192245000Y-94560000D01*
X194615000Y-82420000D02*
X189875000Y-82420000D01*
X194615000Y-94560000D02*
X194615000Y-82420000D01*
%TO.C,A3*%
D10*
X234165000Y-135530000D02*
X227135000Y-135530000D01*
X227135000Y-125030000D01*
X234165000Y-125030000D01*
X234165000Y-135530000D01*
X237730000Y-137460000D02*
X234190000Y-137460000D01*
X234190000Y-123280000D01*
X237730000Y-123280000D01*
X237730000Y-137460000D01*
X267500000Y-140200000D02*
X236000000Y-140200000D01*
X236000000Y-120400000D01*
X267500000Y-120400000D01*
X267500000Y-140200000D01*
X269210000Y-134560000D02*
X265670000Y-134560000D01*
X265670000Y-123200000D01*
X269210000Y-123200000D01*
X269210000Y-134560000D01*
%TO.C,U2*%
X220605000Y-140320000D02*
X208095000Y-140320000D01*
X208095000Y-125590000D01*
X220605000Y-125590000D01*
X220605000Y-140320000D01*
%TO.C,A5*%
X255035000Y-84300000D02*
X246185000Y-84300000D01*
X246185000Y-87550000D01*
X255035000Y-87550000D01*
X255035000Y-84300000D01*
D13*
%TO.C,U1*%
X176310000Y-101690000D02*
X176340000Y-140130000D01*
X176340000Y-140130000D02*
X186220000Y-140130000D01*
X186190000Y-140130000D02*
X194320000Y-140130000D01*
X194320000Y-140130000D02*
X204210000Y-140130000D01*
X204210000Y-101690000D02*
X176310000Y-101690000D01*
X204210000Y-140130000D02*
X204210000Y-101690000D01*
D14*
X175790000Y-102820000D02*
G75*
G02*
X175590000Y-102820000I-100000J0D01*
G01*
X175590000Y-102820000D02*
G75*
G02*
X175790000Y-102820000I100000J0D01*
G01*
%TD*%
D15*
%TO.P,U3,1,VOUT+*%
%TO.N,5V*%
X148375000Y-108175000D03*
%TO.P,U3,2,VOUT-*%
%TO.N,GND*%
X148375000Y-115075000D03*
%TO.P,U3,3,IN+*%
%TO.N,unconnected-(U3-IN+-Pad3)*%
X148375000Y-121575000D03*
%TO.P,U3,4,IN-*%
%TO.N,unconnected-(U3-IN--Pad4)*%
X148375000Y-136875000D03*
%TO.P,U3,5,BAT+*%
%TO.N,Net-(BT1-+)*%
X168475000Y-124375000D03*
%TO.P,U3,6,BAT-*%
%TO.N,GND*%
X168475000Y-133875000D03*
%TD*%
D16*
%TO.P,BT1,1,+*%
%TO.N,Net-(BT1-+)*%
X156845000Y-88265000D03*
D15*
%TO.P,BT1,2,-*%
%TO.N,GND*%
X156845000Y-93345000D03*
%TD*%
D17*
%TO.P,A1,1,5V*%
%TO.N,5V*%
X184745000Y-95250000D03*
%TO.P,A1,2,GND*%
%TO.N,GND*%
X177165000Y-95250000D03*
%TO.P,A1,3,DO*%
%TO.N,Net-(A1-DO)*%
X179705000Y-95250000D03*
%TO.P,A1,4,AO*%
%TO.N,unconnected-(A1-AO-Pad4)*%
X182245000Y-95250000D03*
%TD*%
D16*
%TO.P,A2,1,RX*%
%TO.N,TX0_5V*%
X264635000Y-97380000D03*
D15*
%TO.P,A2,2,TX*%
%TO.N,RX0_5V*%
X264635000Y-102460000D03*
%TO.P,A2,3,5V*%
%TO.N,5V*%
X264635000Y-107540000D03*
%TO.P,A2,4,GND*%
%TO.N,GND*%
X264635000Y-112620000D03*
%TD*%
D17*
%TO.P,A4,1,SDA*%
%TO.N,SDA*%
X232885000Y-105370000D03*
%TO.P,A4,2,SCK*%
%TO.N,SCK*%
X232885000Y-102870000D03*
%TO.P,A4,3,VCC*%
%TO.N,3.3V*%
X232885000Y-97790000D03*
%TO.P,A4,4,GND*%
%TO.N,GND*%
X232885000Y-100330000D03*
%TD*%
D18*
%TO.P,R1,1*%
%TO.N,Net-(A1-DO)*%
X199865000Y-80870000D03*
D19*
%TO.P,R1,2*%
%TO.N,AO_MQ_135*%
X199865000Y-96110000D03*
%TD*%
D17*
%TO.P,J1,1,5V*%
%TO.N,5V*%
X244315000Y-102500000D03*
%TO.P,J1,2,CS*%
%TO.N,SD_SS*%
X244315000Y-112620000D03*
%TO.P,J1,3,MOSI*%
%TO.N,SD_MOSI*%
X244315000Y-107540000D03*
%TO.P,J1,4,CLK*%
%TO.N,SD_CLK*%
X244315000Y-110080000D03*
%TO.P,J1,5,MISO*%
%TO.N,SD_MISO*%
X244315000Y-105040000D03*
%TO.P,J1,6,GND*%
%TO.N,GND*%
X244315000Y-99960000D03*
%TD*%
D18*
%TO.P,R2,1*%
%TO.N,AO_MQ_135*%
X192245000Y-96110000D03*
D19*
%TO.P,R2,2*%
%TO.N,GND*%
X192245000Y-80870000D03*
%TD*%
D17*
%TO.P,A3,*%
%TO.N,*%
X267470000Y-132850000D03*
X267470000Y-130310000D03*
X235990000Y-135360000D03*
X235990000Y-132820000D03*
X235990000Y-125240000D03*
%TO.P,A3,1,RX*%
%TO.N,TX2_5V*%
X235990000Y-127780000D03*
%TO.P,A3,2,TX*%
%TO.N,RX2_5V*%
X235990000Y-130280000D03*
%TO.P,A3,3,5V*%
%TO.N,5V*%
X267470000Y-125230000D03*
%TO.P,A3,4,GND*%
%TO.N,GND*%
X267470000Y-127770000D03*
%TD*%
%TO.P,U2,*%
%TO.N,*%
X209265000Y-134210000D03*
%TO.P,U2,1,VCCA*%
%TO.N,5V*%
X219425000Y-131710000D03*
%TO.P,U2,2,A1*%
%TO.N,TX0_5V*%
X219425000Y-126630000D03*
%TO.P,U2,3,A2*%
%TO.N,RX0_5V*%
X219425000Y-129170000D03*
%TO.P,U2,4,A3*%
%TO.N,TX2_5V*%
X219425000Y-136750000D03*
%TO.P,U2,5,A4*%
%TO.N,RX2_5V*%
X219425000Y-139290000D03*
%TO.P,U2,7,GND*%
%TO.N,GND*%
X219425000Y-134210000D03*
%TO.P,U2,10,B4*%
%TO.N,RX2_3V*%
X209265000Y-139290000D03*
%TO.P,U2,11,B3*%
%TO.N,TX2_3V*%
X209265000Y-136750000D03*
%TO.P,U2,12,B2*%
%TO.N,RX0_3V*%
X209265000Y-129130000D03*
%TO.P,U2,13,B1*%
%TO.N,TX0_3V*%
X209265000Y-126590000D03*
%TO.P,U2,14,VCCB*%
%TO.N,3.3V*%
X209265000Y-131670000D03*
%TD*%
%TO.P,A5,1,VDD*%
%TO.N,3.3V*%
X253075000Y-85900000D03*
%TO.P,A5,2,DATA*%
%TO.N,DHT_22*%
X250535000Y-85900000D03*
%TO.P,A5,3,GND*%
%TO.N,GND*%
X247995000Y-85900000D03*
%TD*%
%TO.P,U1,1,EN*%
%TO.N,unconnected-(U1-EN-Pad1)*%
X177560000Y-102940000D03*
%TO.P,U1,2,GPIO36_ADC-CH0_SENS-VP_RTC-GPIO0*%
%TO.N,unconnected-(U1-GPIO36_ADC-CH0_SENS-VP_RTC-GPIO0-Pad2)*%
X177560000Y-105480000D03*
%TO.P,U1,3,GPIO39_ADC1-CH3_SENS-VN_RTC-GPIO3*%
%TO.N,unconnected-(U1-GPIO39_ADC1-CH3_SENS-VN_RTC-GPIO3-Pad3)*%
X177560000Y-108020000D03*
%TO.P,U1,4,GPIO34_ADC1-CH6_RTC-GPIO4*%
%TO.N,unconnected-(U1-GPIO34_ADC1-CH6_RTC-GPIO4-Pad4)*%
X177560000Y-110560000D03*
%TO.P,U1,5,GPIO35_ADC1-CH7_RTC-GPIO5*%
%TO.N,AO_MQ_135*%
X177560000Y-113100000D03*
%TO.P,U1,6,GPIO32_ADC1-CH4_RTC-GPIO9*%
%TO.N,unconnected-(U1-GPIO32_ADC1-CH4_RTC-GPIO9-Pad6)*%
X177560000Y-115640000D03*
%TO.P,U1,7,GPIO33_ADC1-CH5_RTC-GPIO8*%
%TO.N,unconnected-(U1-GPIO33_ADC1-CH5_RTC-GPIO8-Pad7)*%
X177560000Y-118180000D03*
%TO.P,U1,8,GPIO25_ADC2-CH8_DAC1_RTC-GPIO6*%
%TO.N,unconnected-(U1-GPIO25_ADC2-CH8_DAC1_RTC-GPIO6-Pad8)*%
X177560000Y-120720000D03*
%TO.P,U1,9,GPIO26_ADC2-CH9_DAC2_RTC-GPIO7*%
%TO.N,unconnected-(U1-GPIO26_ADC2-CH9_DAC2_RTC-GPIO7-Pad9)*%
X177560000Y-123260000D03*
%TO.P,U1,10,GPIO27_ADC2-CH7_RTC-GPIO17*%
%TO.N,unconnected-(U1-GPIO27_ADC2-CH7_RTC-GPIO17-Pad10)*%
X177560000Y-125800000D03*
%TO.P,U1,11,GPIO14_ADC2-CH6_HSPI-CLK_RTC-GPIO16*%
%TO.N,DHT_22*%
X177560000Y-128340000D03*
%TO.P,U1,12,GPIO12_ADC2-CH5_HSPI-MISO_RTC-GPIO15*%
%TO.N,RX0_3V*%
X177560000Y-130880000D03*
%TO.P,U1,13,GPIO13_ADC2-CH4_HSPI-MOSI_RTC-GPIO14*%
%TO.N,TX0_3V*%
X177560000Y-133420000D03*
%TO.P,U1,14,GND*%
%TO.N,GND*%
X177560000Y-135960000D03*
%TO.P,U1,15,VIN*%
%TO.N,5V*%
X177560000Y-138500000D03*
%TO.P,U1,16,3V3*%
%TO.N,3.3V*%
X202960000Y-138500000D03*
%TO.P,U1,17,GND*%
%TO.N,unconnected-(U1-GND-Pad17)*%
X202960000Y-135960000D03*
%TO.P,U1,18,GPIO15_ADC2-CH3_HSPI-CS0_RTC-GPIO13*%
%TO.N,unconnected-(U1-GPIO15_ADC2-CH3_HSPI-CS0_RTC-GPIO13-Pad18)*%
X202960000Y-133420000D03*
%TO.P,U1,19,GPIO2_ADC2-CH2_RTC-GPIO12*%
%TO.N,unconnected-(U1-GPIO2_ADC2-CH2_RTC-GPIO12-Pad19)*%
X202960000Y-130880000D03*
%TO.P,U1,20,GPIO4_ADC2-CH0_RTC-GPIO10*%
%TO.N,3.3V*%
X202960000Y-128340000D03*
%TO.P,U1,21,GPIO16_UART2-RX*%
%TO.N,RX2_3V*%
X202960000Y-125800000D03*
%TO.P,U1,22,GPIO17_UART2-TX*%
%TO.N,TX2_3V*%
X202960000Y-123260000D03*
%TO.P,U1,23,GPIO5_VSPI-CS0*%
%TO.N,SD_SS*%
X202960000Y-120720000D03*
%TO.P,U1,24,GPIO18_VSPI-CLK*%
%TO.N,SD_CLK*%
X202960000Y-118180000D03*
%TO.P,U1,25,GPIO19_VSPI-MISO*%
%TO.N,SD_MISO*%
X202960000Y-115640000D03*
%TO.P,U1,26,GPIO21_I2C-SDA*%
%TO.N,SDA*%
X202960000Y-113100000D03*
%TO.P,U1,27,GPIO3__UART0-RX*%
%TO.N,unconnected-(U1-GPIO3__UART0-RX-Pad27)*%
X202960000Y-110560000D03*
%TO.P,U1,28,GPIO1_UART0-TX*%
%TO.N,unconnected-(U1-GPIO1_UART0-TX-Pad28)*%
X202960000Y-108020000D03*
%TO.P,U1,29,GPIO22_I2C-SCL*%
%TO.N,SCK*%
X202960000Y-105480000D03*
%TO.P,U1,30,GPIO23_VSPI-MOSI*%
%TO.N,SD_MOSI*%
X202960000Y-102940000D03*
%TD*%
D20*
%TO.N,3.3V*%
X201365000Y-128340000D02*
X202960000Y-128340000D01*
X200660000Y-127635000D02*
X201365000Y-128340000D01*
X200660000Y-102870000D02*
X200660000Y-127635000D01*
X205740000Y-97790000D02*
X200660000Y-102870000D01*
X232885000Y-97790000D02*
X205740000Y-97790000D01*
%TO.N,Net-(BT1-+)*%
X158115000Y-111760000D02*
X168475000Y-122120000D01*
X168475000Y-122120000D02*
X168475000Y-124375000D01*
X147320000Y-111760000D02*
X158115000Y-111760000D01*
X146050000Y-110490000D02*
X147320000Y-111760000D01*
X154305000Y-88265000D02*
X146050000Y-96520000D01*
X146050000Y-96520000D02*
X146050000Y-110490000D01*
X156845000Y-88265000D02*
X154305000Y-88265000D01*
%TO.N,5V*%
X175735000Y-115410000D02*
X175735000Y-115570000D01*
X175735000Y-115570000D02*
X175735000Y-138020000D01*
X175735000Y-101190000D02*
X175735000Y-115570000D01*
X148375000Y-108175000D02*
X168500000Y-108175000D01*
X168500000Y-108175000D02*
X175735000Y-115410000D01*
D21*
%TO.N,RX0_3V*%
X211295000Y-129130000D02*
X209265000Y-129130000D01*
X212565000Y-130400000D02*
X211295000Y-129130000D01*
X202405000Y-141830000D02*
X210025000Y-141830000D01*
X191455000Y-130880000D02*
X202405000Y-141830000D01*
X177560000Y-130880000D02*
X191455000Y-130880000D01*
X210025000Y-141830000D02*
X212565000Y-139290000D01*
X212565000Y-139290000D02*
X212565000Y-130400000D01*
%TO.N,TX0_3V*%
X201855000Y-142550000D02*
X192725000Y-133420000D01*
X192725000Y-133420000D02*
X177560000Y-133420000D01*
X210575000Y-142550000D02*
X201855000Y-142550000D01*
X213835000Y-129130000D02*
X213835000Y-139290000D01*
X213835000Y-139290000D02*
X210575000Y-142550000D01*
X211295000Y-126590000D02*
X213835000Y-129130000D01*
X209265000Y-126590000D02*
X211295000Y-126590000D01*
%TO.N,DHT_22*%
X245325000Y-93570000D02*
X208755000Y-93570000D01*
X250535000Y-88360000D02*
X245325000Y-93570000D01*
X177560000Y-128340000D02*
X179065000Y-128340000D01*
X179065000Y-128340000D02*
X182720000Y-124685000D01*
X250535000Y-85900000D02*
X250535000Y-88360000D01*
X208755000Y-93570000D02*
X182720000Y-119605000D01*
X182720000Y-124685000D02*
X182720000Y-119605000D01*
%TO.N,TX2_5V*%
X219425000Y-136750000D02*
X221455000Y-136750000D01*
X230425000Y-127780000D02*
X235990000Y-127780000D01*
X221455000Y-136750000D02*
X230425000Y-127780000D01*
%TO.N,SDA*%
X225155000Y-113100000D02*
X202960000Y-113100000D01*
X232885000Y-105370000D02*
X225155000Y-113100000D01*
%TO.N,SD_SS*%
X204465000Y-120720000D02*
X202960000Y-120720000D01*
X244315000Y-112620000D02*
X239235000Y-112620000D01*
X234155000Y-117700000D02*
X207485000Y-117700000D01*
X207485000Y-117700000D02*
X204465000Y-120720000D01*
X239235000Y-112620000D02*
X234155000Y-117700000D01*
D20*
%TO.N,3.3V*%
X253075000Y-85900000D02*
X253075000Y-88620000D01*
X211295000Y-132940000D02*
X211295000Y-139290000D01*
X203675000Y-140560000D02*
X202960000Y-139845000D01*
X210025000Y-140560000D02*
X203675000Y-140560000D01*
X253075000Y-88620000D02*
X243905000Y-97790000D01*
X209265000Y-131670000D02*
X210025000Y-131670000D01*
X202960000Y-139845000D02*
X202960000Y-138500000D01*
X211295000Y-139290000D02*
X210025000Y-140560000D01*
X243905000Y-97790000D02*
X232885000Y-97790000D01*
X210025000Y-131670000D02*
X211295000Y-132940000D01*
D21*
%TO.N,TX0_5V*%
X227805000Y-120240000D02*
X221415000Y-126630000D01*
X264635000Y-97380000D02*
X262095000Y-97380000D01*
X251935000Y-120240000D02*
X240505000Y-120240000D01*
X240505000Y-120240000D02*
X227805000Y-120240000D01*
X258285000Y-101190000D02*
X258285000Y-113890000D01*
X221415000Y-126630000D02*
X219425000Y-126630000D01*
X258285000Y-113890000D02*
X251935000Y-120240000D01*
X262095000Y-97380000D02*
X258285000Y-101190000D01*
%TO.N,RX2_5V*%
X219425000Y-139290000D02*
X222725000Y-139290000D01*
X231735000Y-130280000D02*
X235990000Y-130280000D01*
X222725000Y-139290000D02*
X231735000Y-130280000D01*
%TO.N,SD_MISO*%
X206215000Y-115160000D02*
X205735000Y-115640000D01*
X205735000Y-115640000D02*
X202960000Y-115640000D01*
X240465000Y-105040000D02*
X230345000Y-115160000D01*
X244315000Y-105040000D02*
X240465000Y-105040000D01*
X230345000Y-115160000D02*
X206215000Y-115160000D01*
%TO.N,SD_CLK*%
X237965000Y-110080000D02*
X231615000Y-116430000D01*
X204465000Y-118180000D02*
X202960000Y-118180000D01*
X231615000Y-116430000D02*
X206215000Y-116430000D01*
X244315000Y-110080000D02*
X237965000Y-110080000D01*
X206215000Y-116430000D02*
X204465000Y-118180000D01*
%TO.N,SCK*%
X232885000Y-102870000D02*
X230755000Y-102870000D01*
X228145000Y-105480000D02*
X202960000Y-105480000D01*
X230755000Y-102870000D02*
X228145000Y-105480000D01*
%TO.N,RX0_5V*%
X263365000Y-102460000D02*
X259555000Y-106270000D01*
X229075000Y-121510000D02*
X221415000Y-129170000D01*
X221415000Y-129170000D02*
X219425000Y-129170000D01*
X259555000Y-115160000D02*
X253205000Y-121510000D01*
X253205000Y-121510000D02*
X240505000Y-121510000D01*
X259555000Y-106270000D02*
X259555000Y-115160000D01*
X240505000Y-121510000D02*
X229075000Y-121510000D01*
X264635000Y-102460000D02*
X263365000Y-102460000D01*
D20*
%TO.N,5V*%
X260825000Y-123960000D02*
X259555000Y-125230000D01*
X221415000Y-131710000D02*
X230345000Y-122780000D01*
D21*
X250625000Y-102500000D02*
X244315000Y-102500000D01*
D20*
X240505000Y-139290000D02*
X235425000Y-144370000D01*
D21*
X268445000Y-106270000D02*
X268445000Y-96110000D01*
X267175000Y-107540000D02*
X268445000Y-106270000D01*
X240595000Y-125230000D02*
X240505000Y-125320000D01*
D20*
X239235000Y-122780000D02*
X240505000Y-124050000D01*
D21*
X264635000Y-107540000D02*
X263365000Y-107540000D01*
D20*
X177005000Y-99920000D02*
X175735000Y-101190000D01*
X219425000Y-131710000D02*
X221415000Y-131710000D01*
X240505000Y-125320000D02*
X240505000Y-139290000D01*
D21*
X268445000Y-96110000D02*
X265905000Y-93570000D01*
D20*
X177560000Y-138500000D02*
X178755000Y-138500000D01*
X235425000Y-144370000D02*
X184625000Y-144370000D01*
X260825000Y-110080000D02*
X260825000Y-123960000D01*
X230345000Y-122780000D02*
X239235000Y-122780000D01*
X240505000Y-124050000D02*
X240505000Y-125320000D01*
D21*
X264635000Y-107540000D02*
X267175000Y-107540000D01*
D20*
X175735000Y-138020000D02*
X176215000Y-138500000D01*
X178755000Y-138500000D02*
X184625000Y-144370000D01*
X267470000Y-125230000D02*
X259555000Y-125230000D01*
X184745000Y-97260000D02*
X182085000Y-99920000D01*
X182085000Y-99920000D02*
X177005000Y-99920000D01*
X263365000Y-107540000D02*
X260825000Y-110080000D01*
X176215000Y-138500000D02*
X177560000Y-138500000D01*
D21*
X265905000Y-93570000D02*
X259555000Y-93570000D01*
D20*
X184745000Y-95250000D02*
X184745000Y-97260000D01*
D21*
X259555000Y-93570000D02*
X250625000Y-102500000D01*
D20*
X259555000Y-125230000D02*
X240595000Y-125230000D01*
D21*
%TO.N,AO_MQ_135*%
X192245000Y-96110000D02*
X199865000Y-96110000D01*
X192245000Y-105000000D02*
X184145000Y-113100000D01*
X192245000Y-96110000D02*
X192245000Y-105000000D01*
X184145000Y-113100000D02*
X177560000Y-113100000D01*
%TO.N,Net-(A1-DO)*%
X199865000Y-83410000D02*
X192245000Y-91030000D01*
X179705000Y-93410000D02*
X179705000Y-95250000D01*
X192245000Y-91030000D02*
X182085000Y-91030000D01*
X199865000Y-80870000D02*
X199865000Y-83410000D01*
X182085000Y-91030000D02*
X179705000Y-93410000D01*
D22*
%TO.N,TX2_3V*%
X206215000Y-135330000D02*
X207635000Y-136750000D01*
X206215000Y-125320000D02*
X206215000Y-135330000D01*
X202960000Y-123260000D02*
X204155000Y-123260000D01*
X207635000Y-136750000D02*
X209265000Y-136750000D01*
X204155000Y-123260000D02*
X206215000Y-125320000D01*
%TO.N,RX2_3V*%
X202960000Y-125800000D02*
X204155000Y-125800000D01*
X206365000Y-139290000D02*
X209265000Y-139290000D01*
X204945000Y-126590000D02*
X204945000Y-138020000D01*
X205095000Y-138020000D02*
X206365000Y-139290000D01*
X204155000Y-125800000D02*
X204945000Y-126590000D01*
X204945000Y-138020000D02*
X205095000Y-138020000D01*
%TD*%
M02*
